<svg id="visual" viewBox="0 0 900 600" width="900" height="600" xmlns="http://www.w3.org/2000/svg" xmlns:xlink="http://www.w3.org/1999/xlink" version="1.1"><path d="M0 286L129 286L129 325L257 325L257 321L386 321L386 372L514 372L514 360L643 360L643 260L771 260L771 310L900 310L900 381L900 601L900 601L771 601L771 601L643 601L643 601L514 601L514 601L386 601L386 601L257 601L257 601L129 601L129 601L0 601Z" fill="#784ac9"></path><path d="M0 462L129 462L129 382L257 382L257 376L386 376L386 402L514 402L514 377L643 377L643 372L771 372L771 378L900 378L900 428L900 601L900 601L771 601L771 601L643 601L643 601L514 601L514 601L386 601L386 601L257 601L257 601L129 601L129 601L0 601Z" fill="#672cac"></path><path d="M0 481L129 481L129 456L257 456L257 473L386 473L386 479L514 479L514 523L643 523L643 490L771 490L771 455L900 455L900 492L900 601L900 601L771 601L771 601L643 601L643 601L514 601L514 601L386 601L386 601L257 601L257 601L129 601L129 601L0 601Z" fill="#560090"></path></svg>