<svg id="visual" viewBox="0 0 900 600" width="900" height="600" xmlns="http://www.w3.org/2000/svg" xmlns:xlink="http://www.w3.org/1999/xlink" version="1.1"><path d="M0 298L129 298L129 288L257 288L257 287L386 287L386 267L514 267L514 340L643 340L643 280L771 280L771 335L900 335L900 259L900 601L900 601L771 601L771 601L643 601L643 601L514 601L514 601L386 601L386 601L257 601L257 601L129 601L129 601L0 601Z" fill="#d07744"></path><path d="M0 410L129 410L129 366L257 366L257 392L386 392L386 357L514 357L514 355L643 355L643 451L771 451L771 392L900 392L900 417L900 601L900 601L771 601L771 601L643 601L643 601L514 601L514 601L386 601L386 601L257 601L257 601L129 601L129 601L0 601Z" fill="#bc2d58"></path><path d="M0 543L129 543L129 447L257 447L257 460L386 460L386 477L514 477L514 532L643 532L643 514L771 514L771 468L900 468L900 497L900 601L900 601L771 601L771 601L643 601L643 601L514 601L514 601L386 601L386 601L257 601L257 601L129 601L129 601L0 601Z" fill="#72097c"></path></svg>